<?xml version="1.0" standalone="no"?>
<!DOCTYPE svg PUBLIC "-//W3C//DTD SVG 20010904//EN"
 "http://www.w3.org/TR/2001/REC-SVG-20010904/DTD/svg10.dtd">
<svg version="1.0" xmlns="http://www.w3.org/2000/svg"
 width="303.000000pt" height="121.000000pt" viewBox="0 0 303.000000 121.000000"
 preserveAspectRatio="xMidYMid meet">

<g transform="translate(0.000000,121.000000) scale(0.100000,-0.100000)"
fill="#000000" stroke="none">
<path d="M2 243 c3 -179 8 -199 57 -225 37 -20 150 -16 183 5 40 27 48 66 48
233 l0 154 -34 0 -34 0 -3 -164 c-4 -144 -6 -166 -23 -185 -25 -27 -77 -28
-101 -1 -16 18 -19 44 -23 185 l-5 165 -34 0 -35 0 4 -167z"/>
<path d="M1120 210 l0 -200 30 0 30 0 0 200 0 200 -30 0 -30 0 0 -200z"/>
<path d="M2037 403 c-4 -3 -7 -93 -7 -200 l0 -193 34 0 34 0 4 89 c4 96 23
141 58 141 29 0 40 -38 40 -141 l0 -89 30 0 30 0 0 120 c0 107 -2 122 -20 140
-29 29 -64 25 -105 -11 l-35 -31 0 91 0 91 -28 0 c-16 0 -32 -3 -35 -7z"/>
<path d="M2660 210 l0 -200 35 0 35 0 0 200 0 200 -35 0 -35 0 0 -200z"/>
<path d="M474 256 l-34 -34 0 29 c0 26 -3 29 -35 29 l-35 0 0 -135 0 -135 35
0 35 0 0 83 c0 92 9 109 63 122 23 6 27 12 27 41 0 43 -13 43 -56 0z"/>
<path d="M613 280 c-29 -12 -45 -44 -41 -83 2 -24 14 -40 53 -69 59 -45 68
-81 22 -86 -16 -2 -39 4 -53 13 -24 15 -24 15 -24 -14 0 -21 6 -30 23 -35 41
-11 82 -6 115 14 26 16 32 26 32 54 0 50 -7 62 -61 101 -61 43 -67 75 -15 75
19 0 38 -4 41 -10 11 -18 25 -10 25 14 0 16 -7 26 -22 30 -31 8 -69 6 -95 -4z"/>
<path d="M1312 275 c-26 -11 -52 -47 -52 -71 0 -2 18 -4 39 -4 36 0 40 3 43
28 2 20 9 28 27 30 29 5 41 -12 41 -59 0 -36 0 -36 -51 -43 -67 -9 -115 -52
-104 -94 3 -15 13 -34 21 -42 21 -21 88 -19 113 4 19 17 21 17 21 3 0 -13 9
-17 35 -17 l35 0 0 105 c0 57 -5 115 -11 129 -20 43 -95 58 -157 31z m98 -168
c0 -54 -58 -89 -80 -47 -19 35 8 67 58 69 16 1 22 -5 22 -22z"/>
<path d="M1583 280 c-29 -12 -45 -44 -41 -83 2 -24 14 -40 53 -69 34 -26 50
-45 50 -60 0 -29 -32 -35 -74 -13 l-31 16 0 -30 c0 -32 14 -41 64 -41 55 0 93
19 107 52 18 43 3 76 -56 120 -57 43 -65 71 -21 76 16 2 33 -1 39 -7 17 -17
27 -13 27 13 0 13 -7 27 -16 30 -22 8 -75 6 -101 -4z"/>
<path d="M1823 276 c-17 -8 -39 -29 -48 -47 -23 -43 -16 -139 12 -177 27 -37
93 -57 151 -46 63 12 67 34 7 32 -35 0 -52 5 -71 22 -26 25 -44 76 -44 125 0
71 72 105 78 38 3 -31 5 -33 44 -33 39 0 40 1 33 28 -3 15 -14 35 -25 46 -23
24 -96 30 -137 12z"/>
<path d="M2864 280 c-12 -4 -31 -21 -43 -36 -29 -37 -30 -135 -1 -182 32 -53
111 -76 174 -52 36 13 32 30 -6 28 -18 0 -43 2 -55 6 -27 9 -60 61 -65 101
l-3 30 83 3 c90 3 95 8 67 61 -22 43 -97 63 -151 41z m84 -32 c7 -7 12 -20 12
-30 0 -15 -8 -18 -45 -18 -37 0 -45 3 -45 18 0 24 19 42 45 42 12 0 26 -5 33
-12z"/>
<path d="M800 165 c0 -110 1 -117 25 -140 33 -33 70 -32 106 4 l29 29 0 -24
c0 -21 5 -24 35 -24 l35 0 0 135 0 135 -34 0 -34 0 -4 -95 c-3 -82 -6 -97 -26
-117 -18 -18 -26 -20 -40 -12 -14 9 -17 29 -20 118 l-3 106 -34 0 -35 0 0
-115z"/>
<path d="M2350 160 c0 -107 2 -122 20 -140 32 -32 83 -23 122 24 l17 21 1 -27
c0 -25 4 -28 35 -28 l35 0 0 135 0 135 -34 0 -33 0 -5 -90 c-6 -97 -24 -140
-58 -140 -29 0 -40 38 -40 141 l0 89 -30 0 -30 0 0 -120z"/>
</g>
</svg>
